<?xml version="1.0" standalone="no"?>
<!DOCTYPE svg PUBLIC "-//W3C//DTD SVG 20010904//EN"
 "http://www.w3.org/TR/2001/REC-SVG-20010904/DTD/svg10.dtd">
<svg version="1.0" xmlns="http://www.w3.org/2000/svg"
 width="512.000000pt" height="512.000000pt" viewBox="0 0 512.000000 512.000000"
 preserveAspectRatio="xMidYMid meet">
<metadata>
Created by potrace 1.14, written by Peter Selinger 2001-2017
</metadata>
<g transform="translate(0.000000,512.000000) scale(0.100000,-0.100000)"
fill="#000000" stroke="none">
<path d="M2488 4571 l-3 -121 35 0 c31 1 33 2 18 14 -14 10 -18 28 -18 87 l0
74 91 -90 91 -90 -4 113 c-4 95 -2 114 11 122 12 7 6 9 -23 10 -32 0 -36 -2
-27 -14 7 -9 11 -40 9 -80 l-3 -66 -50 47 c-27 26 -67 62 -87 80 l-37 34 -3
-120z"/>
<path d="M2878 4664 c-61 -32 -78 -129 -32 -183 62 -74 194 -55 194 28 0 12 6
21 13 21 24 0 -17 20 -43 20 -17 0 -21 -3 -13 -11 6 -6 7 -24 4 -42 -6 -27
-12 -32 -40 -35 -57 -6 -81 6 -98 45 -12 30 -13 44 -4 74 12 41 52 79 82 79
29 0 68 -22 74 -42 9 -26 25 -22 25 6 0 47 -103 72 -162 40z"/>
<path d="M2220 4548 c-12 -57 -29 -113 -37 -126 -14 -23 -14 -23 18 -20 31 3
33 5 33 43 1 37 3 39 40 47 31 7 41 5 52 -9 8 -10 12 -26 10 -35 -3 -13 2 -18
17 -17 24 0 69 17 50 18 -7 1 -43 46 -80 101 -37 54 -71 99 -74 100 -3 0 -16
-46 -29 -102z m71 -9 c7 -13 3 -18 -17 -23 -34 -9 -37 -5 -28 40 6 35 8 36 21
18 8 -10 19 -26 24 -35z"/>
<path d="M1892 4555 c-81 -26 -112 -48 -112 -78 0 -18 2 -17 21 7 11 14 26 26
33 26 14 0 72 -155 69 -182 -3 -23 -1 -23 80 8 98 38 126 89 93 169 -28 67
-84 82 -184 50z m129 -34 c23 -24 29 -38 29 -74 0 -49 -14 -67 -72 -91 l-36
-15 -31 85 c-17 47 -31 90 -31 94 0 11 49 28 83 29 19 1 39 -9 58 -28z"/>
<path d="M1485 4353 c-54 -37 -66 -53 -41 -53 17 0 110 -136 110 -162 0 -23 1
-23 63 14 39 23 53 38 53 55 0 12 -4 25 -10 28 -5 3 -10 -1 -10 -10 0 -15 -46
-65 -60 -65 -4 0 -15 16 -26 36 -19 35 -19 36 1 50 11 8 25 12 32 10 17 -7 17
5 0 28 -12 17 -15 17 -20 3 -3 -9 -15 -21 -26 -26 -17 -10 -24 -6 -45 26 l-25
37 29 18 c16 9 37 15 46 11 14 -5 14 -3 3 16 -8 11 -16 21 -19 20 -3 -1 -27
-17 -55 -36z"/>
<path d="M1296 4219 c-27 -21 -27 -23 -9 -30 10 -4 45 -38 76 -77 42 -51 55
-75 50 -88 -6 -16 -2 -15 25 5 32 22 43 43 21 39 -15 -4 -127 128 -131 154 -3
20 -4 20 -32 -3z"/>
<path d="M3750 4151 c0 -5 38 -35 85 -66 272 -183 521 -467 656 -748 37 -78
59 -106 59 -77 0 23 -104 216 -166 307 -145 214 -319 389 -531 534 -87 59
-103 67 -103 50z"/>
<path d="M1149 4093 c-16 -17 -18 -24 -8 -21 10 4 37 -13 75 -48 l59 -54 -127
7 c-86 4 -128 3 -128 -4 0 -6 36 -43 79 -83 59 -52 78 -76 73 -88 -6 -16 -4
-16 18 -1 31 20 37 39 13 39 -10 0 -41 23 -68 50 l-49 50 122 0 c67 0 122 3
122 7 0 3 -34 38 -76 76 -45 42 -73 75 -70 83 9 22 -9 16 -35 -13z"/>
<path d="M2486 3939 c-3 -13 -7 -64 -11 -114 -3 -49 -8 -120 -11 -158 l-7 -67
-24 32 c-14 18 -41 65 -60 103 l-36 70 -9 -30 c-18 -55 -14 -323 5 -399 43
-172 134 -278 328 -381 100 -53 114 -63 113 -85 -1 -14 -9 -77 -17 -140 -8
-63 -21 -164 -27 -225 -16 -137 -23 -153 -69 -160 -47 -8 -109 -23 -144 -37
-57 -22 -40 -95 39 -168 77 -71 127 -46 164 81 12 41 23 79 25 86 2 6 37 19
78 28 41 9 118 36 171 60 53 24 96 41 96 39 0 -3 -284 -473 -395 -654 -29 -47
-99 -161 -155 -255 -470 -776 -509 -839 -514 -824 -3 8 -26 102 -51 209 -25
107 -54 233 -66 280 -19 82 -107 467 -150 655 -11 50 -31 136 -45 192 -41 173
-31 231 50 273 24 13 42 28 40 32 -6 10 -518 11 -527 1 -4 -4 12 -13 35 -21
67 -22 107 -59 139 -126 16 -33 29 -67 29 -74 0 -7 22 -95 49 -195 27 -100 86
-319 131 -487 261 -977 284 -1060 292 -1060 4 0 26 37 49 82 40 80 1024 1613
1272 1983 231 344 454 513 735 556 85 13 101 29 28 29 -52 0 -201 -25 -276
-46 -89 -25 -232 -101 -328 -174 l-90 -69 23 72 c13 40 47 146 75 235 59 184
91 240 165 290 46 31 54 33 117 30 76 -3 85 6 36 37 -18 11 -49 44 -69 74
-130 188 -272 245 -427 171 -47 -22 -85 -52 -146 -115 -45 -47 -86 -85 -91
-85 -12 0 -183 69 -230 92 -115 59 -209 164 -266 300 -37 87 -37 87 -43 57z
m141 -279 c68 -73 132 -110 319 -185 85 -35 180 -78 211 -97 108 -65 223 -221
223 -304 0 -35 -76 -269 -110 -339 -12 -26 -44 -70 -70 -98 l-48 -52 -7 60
c-9 75 -51 170 -101 225 -22 24 -102 94 -180 156 -152 122 -196 166 -249 249
-72 112 -105 244 -104 412 l0 108 32 -40 c18 -22 55 -64 84 -95z m858 -4 c56
-26 117 -81 163 -149 l32 -45 -41 -16 c-85 -34 -179 -153 -223 -281 -6 -17
-13 -10 -39 40 -43 80 -148 183 -231 226 -36 19 -66 38 -66 43 0 4 33 41 74
82 121 121 221 152 331 100z m-1015 -131 c11 -16 20 -41 20 -55 1 -39 52 -160
96 -226 52 -79 140 -166 247 -243 48 -35 86 -69 84 -75 -3 -6 -9 -10 -15 -9
-24 5 -321 168 -363 199 -119 87 -179 232 -179 433 l0 106 46 -50 c25 -27 54
-63 64 -80z m536 -718 c52 -46 91 -123 100 -198 6 -55 6 -57 -28 -82 -66 -50
-241 -117 -307 -117 -17 0 -20 5 -16 23 2 12 14 105 25 206 11 100 25 205 31
231 l10 48 71 -37 c39 -20 90 -53 114 -74z m-307 -474 c-1 -33 -44 -136 -61
-147 -13 -8 -23 -5 -42 13 -42 39 -80 101 -70 111 9 9 120 37 157 39 10 1 17
-6 16 -16z"/>
<path d="M908 3835 c-21 -28 -22 -35 -5 -35 24 0 168 -113 163 -127 -9 -24 10
-14 32 17 l23 30 -22 0 c-24 0 -166 104 -171 125 -2 9 -9 5 -20 -10z"/>
<path d="M800 3667 c-86 -69 -78 -172 16 -218 44 -21 50 -21 88 -8 51 18 86
67 86 121 0 33 -5 42 -30 56 -16 9 -31 23 -32 30 -2 8 -11 0 -21 -17 -18 -31
-18 -31 5 -31 29 -1 58 -22 58 -44 0 -25 -27 -73 -45 -80 -49 -18 -124 5 -146
46 -28 52 6 128 58 128 26 0 31 15 7 24 -21 8 -27 7 -44 -7z"/>
<path d="M644 3362 c-15 -9 -54 -87 -54 -106 0 -10 6 -13 15 -9 22 8 185 -57
185 -73 0 -23 16 -16 28 11 16 35 15 44 -6 39 -9 -3 -35 2 -56 11 -46 19 -37
30 32 41 47 7 92 37 92 61 0 11 -3 13 -12 5 -7 -5 -37 -17 -65 -25 -41 -12
-53 -13 -53 -3 0 38 -72 71 -106 48z m57 -32 c19 -11 24 -35 13 -63 -5 -13
-10 -13 -45 2 -39 16 -49 37 -27 59 15 15 33 15 59 2z"/>
<path d="M536 3114 c-3 -9 -6 -25 -6 -36 0 -15 3 -18 13 -11 15 13 187 -34
203 -55 8 -11 12 -6 21 23 10 32 10 36 -4 31 -23 -9 -194 34 -200 50 -7 19
-19 18 -27 -2z"/>
<path d="M431 3027 c-1 -49 25 -76 137 -142 45 -27 82 -52 82 -55 0 -13 -153
-40 -166 -30 -9 8 -13 1 -16 -27 -6 -41 -1 -55 11 -35 4 6 58 25 120 41 111
30 137 40 115 48 -6 2 -66 41 -134 86 -103 68 -126 88 -136 117 l-12 35 -1
-38z"/>
<path d="M4539 2655 c44 -48 50 -78 15 -83 -14 -2 -24 5 -32 22 -12 28 -57 45
-74 28 -19 -19 3 -51 62 -87 67 -40 123 -99 118 -123 -3 -13 -15 -17 -55 -17
-45 1 -55 5 -74 29 -12 16 -50 49 -83 73 -60 44 -61 46 -66 101 -3 30 -10 57
-16 59 -8 3 -10 -12 -6 -46 l4 -50 -52 20 c-46 18 -55 18 -68 6 -21 -22 -7
-52 44 -94 41 -35 44 -40 44 -88 0 -52 12 -75 39 -75 12 0 11 3 -2 18 -10 10
-17 35 -17 56 0 34 2 37 23 30 12 -3 38 -15 57 -24 19 -10 54 -23 77 -29 44
-12 83 -51 83 -82 0 -25 -35 -25 -78 1 -72 44 -69 18 5 -53 32 -31 54 -59 50
-63 -4 -4 -28 2 -52 14 -54 26 -55 26 -55 7 0 -8 13 -21 30 -30 59 -31 91
-145 40 -145 -11 0 -20 7 -20 15 0 9 -7 30 -16 46 -11 22 -21 29 -37 27 -60
-8 -6 -108 59 -108 37 0 64 22 64 51 0 11 -10 39 -21 62 -12 23 -18 39 -14 35
11 -10 45 10 45 26 0 7 -9 25 -21 40 -19 25 -20 26 -2 26 44 0 57 50 24 91
l-19 24 39 1 c85 3 92 53 19 124 -45 43 -48 49 -30 55 46 15 29 93 -29 134
-46 33 -47 25 -2 -24z m-30 -76 c3 -11 -1 -10 -19 2 -13 9 -26 22 -29 30 -3
11 1 10 19 -2 13 -9 26 -22 29 -30z m-211 -25 c23 -15 27 -30 13 -53 -7 -10
-18 -5 -50 24 -22 21 -41 42 -41 47 0 13 47 2 78 -18z m158 -112 c33 -29 35
-33 14 -27 -39 11 -140 57 -140 64 0 3 3 16 6 29 l6 22 37 -27 c21 -16 55 -43
77 -61z m4 -385 c0 -5 -9 -2 -20 8 -11 10 -20 25 -20 34 1 12 5 10 20 -8 11
-13 20 -28 20 -34z"/>
<path d="M670 2264 c0 -53 43 -233 86 -362 80 -239 226 -496 376 -658 66 -71
63 -39 -3 39 -214 254 -368 584 -424 910 -16 91 -35 130 -35 71z"/>
<path d="M4367 1993 c-31 -30 32 -128 137 -213 62 -50 82 -71 54 -54 -35 20
-106 71 -154 110 -53 44 -86 44 -46 1 23 -24 52 -87 52 -112 0 -26 -35 -16
-70 20 -38 39 -55 45 -47 16 3 -12 -3 -27 -14 -37 -22 -20 -24 -52 -6 -79 8
-11 25 -50 38 -87 17 -50 21 -70 12 -79 -8 -8 -18 -1 -39 26 -64 83 -72 90
-84 79 -9 -9 -9 -22 0 -54 14 -51 5 -64 -20 -30 -14 18 -22 22 -30 14 -8 -8
-4 -20 16 -43 45 -53 31 -155 -18 -136 -12 5 -15 16 -11 46 9 62 -37 97 -57
44 -7 -18 -5 -36 6 -64 19 -48 15 -116 -6 -116 -8 0 -24 18 -36 40 -41 79 -73
43 -56 -62 5 -29 6 -53 2 -53 -19 0 -39 72 -43 153 -4 71 -10 99 -33 145 -53
105 -100 72 -75 -53 7 -33 13 -64 14 -69 1 -5 -4 -11 -10 -13 -7 -3 -13 2 -13
11 0 28 -33 86 -50 86 -30 0 -40 -23 -40 -91 0 -60 -2 -68 -25 -83 -34 -22
-59 -62 -51 -83 5 -13 10 -10 24 17 9 18 26 39 37 46 20 13 22 10 45 -57 l24
-71 -25 -19 c-13 -10 -34 -19 -46 -19 -27 0 -29 -7 -7 -31 9 -10 18 -36 21
-58 5 -33 2 -42 -12 -47 -28 -11 -47 23 -42 74 2 23 1 42 -2 42 -17 0 -31 -27
-31 -58 0 -21 -9 -45 -24 -63 -13 -15 -26 -34 -28 -41 -4 -10 -10 -10 -32 0
-36 16 -34 63 4 73 l25 7 -27 1 c-31 1 -64 -38 -54 -65 7 -19 -43 -84 -65 -84
-41 0 -52 62 -11 68 29 4 29 22 -1 22 -33 0 -47 -19 -47 -62 0 -41 -18 -86
-44 -107 -13 -11 -17 -9 -26 15 -6 16 -9 43 -5 61 6 33 -11 56 -21 29 -3 -9
-18 -16 -33 -16 -38 0 -49 -11 -70 -66 -48 -128 -64 -163 -87 -190 -24 -29
-24 -29 -40 -9 -19 24 -16 62 22 266 28 153 28 192 1 197 -23 5 -64 -84 -117
-249 l-39 -124 0 146 c-1 117 -4 149 -16 159 -13 10 -18 6 -35 -31 -11 -24
-24 -69 -31 -99 -11 -55 -49 -229 -67 -305 l-10 -40 -1 58 c-1 32 6 116 15
187 16 136 15 170 -4 134 -36 -67 -58 -388 -28 -413 16 -14 31 1 38 39 14 72
80 352 93 395 14 49 14 48 9 -66 -7 -122 5 -189 31 -189 15 0 25 26 86 210 23
69 48 134 55 145 14 19 14 19 14 0 0 -11 -11 -76 -25 -145 -29 -147 -33 -271
-9 -294 36 -37 68 -9 118 102 22 48 35 68 39 58 11 -29 44 -18 62 20 17 36 17
36 32 14 25 -35 64 -23 89 27 18 36 24 40 38 30 14 -11 14 -16 -1 -59 -13 -35
-15 -54 -7 -75 14 -42 48 -43 74 -1 24 39 26 82 5 122 -15 29 -15 31 13 58 35
36 67 30 58 -11 -19 -80 -19 -98 3 -120 25 -25 47 -19 66 20 20 38 19 78 -4
116 -20 31 -20 31 3 62 20 27 25 29 36 16 7 -8 25 -15 40 -15 39 0 55 45 36
100 l-13 40 36 21 c34 20 36 20 46 3 17 -32 82 -94 97 -94 30 0 52 39 56 100
4 54 6 58 23 47 27 -17 30 -6 19 53 -5 29 -10 69 -10 89 l0 36 18 -34 c9 -19
27 -41 39 -48 19 -13 24 -12 42 6 13 13 21 34 21 54 0 31 2 33 29 29 40 -6 64
31 60 92 -2 24 3 51 9 59 8 9 10 27 7 44 -5 25 -5 26 7 9 45 -68 90 -85 110
-41 9 19 7 34 -6 68 -18 49 -20 61 -7 53 5 -4 17 -3 26 0 17 7 17 33 0 75 -5
13 0 15 24 11 25 -3 32 0 42 21 8 18 9 34 1 54 -10 29 -8 29 68 -23 68 -45
172 -94 200 -94 24 0 4 21 -72 75 -96 68 -204 168 -224 207 -33 64 -2 78 52
24 39 -39 43 -63 12 -69 -20 -3 -21 -4 -5 -11 23 -11 47 10 47 40 0 13 -14 39
-31 59 -24 26 -39 35 -63 35 -18 0 -36 -3 -39 -7z m-35 -318 c12 -24 19 -48
15 -51 -13 -14 -57 39 -57 68 0 41 17 34 42 -17z m-423 -243 c12 -34 24 -90
27 -125 l5 -62 -21 38 c-17 30 -20 48 -15 80 6 39 6 40 -8 22 -14 -19 -15 -18
-25 20 -19 77 -21 87 -15 102 9 24 29 -4 52 -75z m211 -40 c0 -21 -2 -24 -10
-12 -13 20 -13 53 0 45 6 -3 10 -18 10 -33z m-313 -27 c13 -37 12 -40 -9 -57
-23 -17 -23 -17 -31 20 -9 43 -1 85 15 80 6 -2 17 -22 25 -43z m67 -63 c4 -10
22 -45 41 -77 30 -49 35 -66 35 -120 0 -35 -3 -70 -6 -79 -10 -26 -48 -19 -71
12 -18 25 -21 44 -23 148 -1 65 -2 122 -1 127 2 14 20 7 25 -11z m-40 -64 c8
-74 8 -118 -3 -118 -5 0 -19 32 -31 71 -23 70 -23 72 -5 85 29 21 32 18 39
-38z m-217 -471 c-6 -45 -11 -52 -32 -44 -18 7 -19 41 -3 87 10 31 12 32 25
14 9 -12 13 -33 10 -57z m-345 47 c8 -8 -27 -95 -38 -94 -5 0 -8 16 -8 35 2
45 28 78 46 59z m206 -90 c3 -42 -17 -82 -36 -70 -15 9 -15 44 -1 85 15 42 33
34 37 -15z"/>
<path d="M4020 1487 c0 -7 7 -22 15 -33 14 -18 14 -17 15 14 0 22 -5 32 -15
32 -8 0 -15 -6 -15 -13z"/>
</g>
</svg>
